<svg t="1698544871116" class="icon" viewBox="0 0 1024 1024" version="1.1" xmlns="http://www.w3.org/2000/svg" p-id="12167" width="200" height="200"><path d="M268.8 742.4h-32c-19.2 0-32 6.4-44.8 19.2l-115.2 160c-12.8 19.2 6.4 38.4 32 38.4l793.6 6.4c32 0 44.8-19.2 32-38.4l-128-160c-6.4-12.8-25.6-19.2-38.4-19.2h-32l-467.2-6.4z" fill="#A0A0A0" p-id="12168"></path><path d="M691.2 396.8C691.2 492.8 614.4 576 512 576S332.8 499.2 332.8 396.8 409.6 217.6 512 217.6s179.2 76.8 179.2 179.2zM499.2 57.6C326.4 57.6 192 198.4 192 371.2s198.4 518.4 307.2 518.4c121.6 0 320-352 313.6-524.8C812.8 192 672 57.6 499.2 57.6z" fill="#6D6D6D" p-id="12169"></path></svg>