<svg t="1698544688424" class="icon" viewBox="0 0 1024 1024" version="1.1" xmlns="http://www.w3.org/2000/svg" p-id="10295" width="200" height="200"><path d="M128 320m128 0l512 0q128 0 128 128l0 448q0 128-128 128l-512 0q-128 0-128-128l0-448q0-128 128-128Z" fill="#7BDFF2" p-id="10296"></path><path d="M590.88 29.76l364.768 285.44A128 128 0 0 1 876.768 544H147.2a128 128 0 0 1-78.88-228.8l364.768-285.44a128 128 0 0 1 157.76 0z" fill="#7BDFF2" p-id="10297"></path><path d="M480 672h64a128 128 0 0 1 128 128v224H352v-224a128 128 0 0 1 128-128z" fill="#FF7959" p-id="10298"></path></svg>