<svg t="1698561332639" class="icon" viewBox="0 0 1024 1024" version="1.1" xmlns="http://www.w3.org/2000/svg" p-id="13334" width="200" height="200"><path d="M85.369263 980.884211V518.144a74.078316 74.078316 0 0 1 73.054316-73.054316h231.450947v60.874105H158.504421a13.096421 13.096421 0 0 0-12.18021 12.180211v334.874947l66.96421-51.738947h252.658526a13.096421 13.096421 0 0 0 12.180211-12.180211v-143.090526a30.450526 30.450526 0 1 1 60.874105 0v143.090526a74.078316 74.078316 0 0 1-73.054316 73.054316H234.576842z" fill="#8a8a8a" p-id="13335"></path><path d="M992.552421 831.730526l-200.919579-158.288842H444.523789a94.854737 94.854737 0 0 1-94.315789-94.315789V183.242105a94.854737 94.854737 0 0 1 94.315789-94.315789h453.578106a94.854737 94.854737 0 0 1 94.315789 94.315789zM444.523789 146.755368a33.792 33.792 0 0 0-33.495578 33.495579v395.749053a33.792 33.792 0 0 0 33.495578 33.495579h368.343579l118.730106 94.315789V183.242105a33.792 33.792 0 0 0-33.495579-33.495579H444.523789z" fill="#8a8a8a" p-id="13336"></path><path d="M806.858105 320.269474H535.929263a30.450526 30.450526 0 1 1 0-60.874106h270.928842a28.752842 28.752842 0 0 1 30.450527 30.450527 30.504421 30.504421 0 0 1-30.450527 30.423579zM806.858105 505.963789H535.929263a30.450526 30.450526 0 1 1 0-60.874105h270.928842a28.752842 28.752842 0 0 1 30.450527 30.450527 30.504421 30.504421 0 0 1-30.450527 30.423578z" fill="#8a8a8a" p-id="13337"></path></svg>