<svg t="1698561430226" class="icon" viewBox="0 0 1024 1024" version="1.1" xmlns="http://www.w3.org/2000/svg" p-id="13530" width="200" height="200"><path d="M604.16 658.773333m-276.48 0a276.48 276.48 0 1 0 552.96 0 276.48 276.48 0 1 0-552.96 0Z" fill="#d81e06" opacity=".3" p-id="13531"></path><path d="M512 989.866667C249.173333 989.866667 34.133333 774.826667 34.133333 512S249.173333 34.133333 512 34.133333s477.866667 215.04 477.866667 477.866667-215.04 477.866667-477.866667 477.866667z m0-904.533334C276.48 85.333333 85.333333 276.48 85.333333 512s191.146667 426.666667 426.666667 426.666667 426.666667-191.146667 426.666667-426.666667S747.52 85.333333 512 85.333333z" fill="#d81e06" p-id="13532"></path><path d="M353.28 510.293333m-46.08 0a46.08 46.08 0 1 0 92.16 0 46.08 46.08 0 1 0-92.16 0Z" fill="#d81e06" p-id="13533"></path><path d="M465.92 646.826667c-6.826667 0-13.653333-1.706667-18.773333-6.826667-10.24-10.24-10.24-25.6 0-35.84 25.6-25.6 39.253333-58.026667 39.253333-93.866667s-13.653333-68.266667-39.253333-93.866666c-10.24-10.24-10.24-25.6 0-35.84s25.6-10.24 35.84 0c34.133333 34.133333 54.613333 80.213333 54.613333 129.706666s-18.773333 95.573333-54.613333 129.706667c-3.413333 5.12-10.24 6.826667-17.066667 6.826667zM576.853333 759.466667c-6.826667 0-13.653333-1.706667-18.773333-6.826667-10.24-10.24-10.24-25.6 0-35.84 54.613333-54.613333 85.333333-128 85.333333-206.506667s-30.72-150.186667-85.333333-206.506666c-10.24-10.24-10.24-25.6 0-35.84 10.24-10.24 25.6-10.24 35.84 0 64.853333 64.853333 100.693333 150.186667 100.693333 242.346666s-34.133333 177.493333-98.986666 240.64c-5.12 5.12-11.946667 8.533333-18.773334 8.533334z" fill="#d81e06" p-id="13534"></path></svg>